<?xml version="1.0" standalone="no"?>
<!DOCTYPE svg PUBLIC "-//W3C//DTD SVG 20010904//EN"
 "http://www.w3.org/TR/2001/REC-SVG-20010904/DTD/svg10.dtd">
<svg version="1.0" xmlns="http://www.w3.org/2000/svg"
 width="95.000000pt" height="95.000000pt" viewBox="0 0 95.000000 95.000000"
 preserveAspectRatio="xMidYMid meet">
<metadata>
Created by potrace 1.11, written by Peter Selinger 2001-2013
</metadata>
<g transform="translate(0.000000,95.000000) scale(0.100000,-0.100000)"
fill="#000000" stroke="none">
<path d="M163 936 c-62 -28 -63 -35 -63 -454 0 -244 4 -390 11 -410 21 -60 31
-62 319 -62 l262 0 29 29 29 29 0 141 c0 136 -1 141 -21 141 -22 0 -60 18 -70
32 -4 6 -21 2 -40 -8 -26 -14 -63 -19 -161 -22 l-128 -4 0 226 0 226 119 0
c126 0 161 -8 200 -43 31 -29 61 -94 61 -134 0 -26 4 -33 20 -33 19 0 20 7 20
140 0 145 -7 176 -43 201 -32 21 -498 25 -544 5z m137 -186 l0 -50 -65 0 -65
0 0 50 0 50 65 0 65 0 0 -50z m5 -235 l0 -160 -65 0 -65 0 -3 163 -2 163 67
-3 68 -3 0 -160z m-128 -282 c-3 -10 -5 -4 -5 12 0 17 2 24 5 18 2 -7 2 -21 0
-30z m188 3 c0 -14 -3 -22 -7 -20 -4 3 -8 17 -8 31 0 32 13 22 15 -11z m214 2
c-1 -24 -3 -27 -6 -10 -2 12 -8 20 -13 17 -5 -3 -6 -13 -3 -22 4 -11 3 -14 -5
-9 -17 11 -15 34 6 45 9 6 18 11 20 11 1 0 1 -15 1 -32z m-352 -9 l2 -24 -8
25 c-7 24 -7 24 -19 5 -11 -20 -11 -20 -12 2 0 31 34 24 37 -8z m38 21 c-3 -5
-1 -10 5 -10 7 0 10 -6 8 -12 -6 -18 -33 -16 -34 2 -1 20 5 30 17 30 6 0 7 -4
4 -10z m43 -15 c0 -13 -4 -22 -9 -19 -5 3 -9 14 -9 25 0 10 4 19 9 19 5 0 9
-11 9 -25z m100 5 c10 23 11 23 11 4 1 -21 -21 -39 -33 -27 -3 4 -6 16 -5 27
1 18 2 18 9 -4 l7 -25 11 25z m42 -6 c0 -14 -4 -23 -10 -19 -5 3 -10 15 -10
26 0 10 5 19 10 19 6 0 10 -12 10 -26z m47 10 c8 -20 -8 -36 -26 -25 -15 10
-8 41 9 41 6 0 13 -7 17 -16z m128 -9 c0 -10 -5 -20 -11 -22 -13 -4 -27 24
-18 38 9 15 29 4 29 -16z m-298 -7 c-3 -8 -6 -5 -6 6 -1 11 2 17 5 13 3 -3 4
-12 1 -19z m-119 -65 c-2 -17 -10 -29 -20 -31 -14 -3 -18 3 -18 27 0 25 4 31
21 31 16 0 20 -5 17 -27z m233 -26 c-16 -16 -35 6 -26 33 l7 22 15 -22 c11
-16 12 -25 4 -33z m81 23 c3 -16 1 -30 -4 -30 -4 0 -8 14 -8 30 0 17 2 30 4
30 2 0 6 -13 8 -30z m-232 -11 c0 -18 -20 -26 -33 -13 -8 8 15 44 25 38 4 -3
8 -14 8 -25z m50 -5 c0 -17 -6 -24 -18 -24 -18 0 -25 20 -17 47 7 21 35 2 35
-23z m154 -5 c-3 -5 -12 -9 -20 -9 -14 0 -20 31 -7 44 9 9 34 -24 27 -35z
m102 29 c4 -7 3 -8 -4 -4 -7 4 -12 1 -12 -9 0 -10 5 -14 13 -9 9 5 9 3 -1 -7
-11 -12 -14 -12 -22 1 -5 9 -5 19 2 27 13 16 15 16 24 1z m54 -13 c0 -19 -20
-29 -32 -17 -8 8 -7 16 2 26 14 17 30 12 30 -9z m50 -6 c0 -12 -7 -19 -17 -18
-13 0 -14 2 -4 6 10 4 11 7 1 13 -7 4 -9 13 -6 19 10 16 26 4 26 -20z m-463
-11 c-3 -7 -5 -2 -5 12 0 14 2 19 5 13 2 -7 2 -19 0 -25z m130 10 c-3 -8 -6
-5 -6 6 -1 11 2 17 5 13 3 -3 4 -12 1 -19z m20 -10 c-3 -7 -5 -2 -5 12 0 14 2
19 5 13 2 -7 2 -19 0 -25z m160 0 c-3 -7 -5 -2 -5 12 0 14 2 19 5 13 2 -7 2
-19 0 -25z"/>
<path d="M475 241 c-3 -5 -1 -12 5 -16 5 -3 10 1 10 9 0 18 -6 21 -15 7z"/>
<path d="M180 160 c0 -11 5 -20 10 -20 6 0 10 9 10 20 0 11 -4 20 -10 20 -5 0
-10 -9 -10 -20z"/>
<path d="M420 154 c0 -8 5 -12 10 -9 6 4 8 11 5 16 -9 14 -15 11 -15 -7z"/>
<path d="M310 150 c0 -5 5 -10 10 -10 6 0 10 5 10 10 0 6 -4 10 -10 10 -5 0
-10 -4 -10 -10z"/>
<path d="M625 161 c-3 -5 -1 -12 5 -16 5 -3 10 1 10 9 0 18 -6 21 -15 7z"/>
<path d="M460 581 l0 -121 35 0 c63 0 91 49 83 141 -6 60 -29 87 -81 96 l-37
6 0 -122z"/>
<path d="M710 526 c0 -7 9 -16 20 -19 15 -4 20 0 20 14 0 12 -7 19 -20 19 -11
0 -20 -6 -20 -14z"/>
<path d="M696 438 c12 -40 54 -53 54 -18 0 13 -10 24 -26 30 -35 14 -36 13
-28 -12z"/>
</g>
</svg>
